<svg id="visual" viewBox="0 0 1440 1024" width="1440" height="1024" xmlns="http://www.w3.org/2000/svg" xmlns:xlink="http://www.w3.org/1999/xlink" version="1.1"><rect x="0" y="0" width="1440" height="1024" fill="#ffffff"></rect><path d="M235 0L291 0L291 85L290 85L290 171L224 171L224 256L178 256L178 341L366 341L366 427L307 427L307 512L193 512L193 597L230 597L230 683L177 683L177 768L241 768L241 853L265 853L265 939L399 939L399 1024L0 1024L0 939L0 939L0 853L0 853L0 768L0 768L0 683L0 683L0 597L0 597L0 512L0 512L0 427L0 427L0 341L0 341L0 256L0 256L0 171L0 171L0 85L0 85L0 0L0 0Z" fill="#121212"></path></svg>